<?xml version="1.0" encoding="utf-8"?>
<!-- Generator: Adobe Illustrator 24.0.3, SVG Export Plug-In . SVG Version: 6.00 Build 0)  -->
<svg version="1.1" id="Layer_1" xmlns="http://www.w3.org/2000/svg" xmlns:xlink="http://www.w3.org/1999/xlink" x="0px" y="0px"
	 viewBox="0 0 190 37" style="enable-background:new 0 0 190 37;" xml:space="preserve">
<style type="text/css">
	.st0{fill:#3B2760;}
</style>
<title>1_Heart_Aetna_logo_sm_rgb_vio</title>
<desc>Created with Sketch.</desc>
<g id="template-carrier-2.0-_x28_complete_x29_">
	<g id="template-carrier-2.0-desktop" transform="translate(-275.000000, -583.000000)">
		<g id="_x31__x5F_Heart_x5F_Aetna_x5F_logo_x5F_sm_x5F_rgb_x5F_vio" transform="translate(275.000000, 583.000000)">
			<path id="Shape" class="st0" d="M175.6,28.3c0-2.5,0.3-6.1,0.3-10.3c0-7.8-3.2-10.7-11.9-10.7c-4.2,0-7.9,0.6-10.2,1.6l0.3,6.2
				c2-1.1,4.9-2.1,7.7-2.1c4,0,5.1,1.6,5.1,5.5v0.6c-0.3,0-1,0-1.3,0c-9.8,0-14.4,3-14.4,8.5c0,5.7,2.8,9,10.9,9
				c4.3,0,8.4-0.6,13.9-0.6C175.6,33.9,175.6,30.6,175.6,28.3z M164.2,31.3c-3,0-4.3-1-4.3-3.5c0-2.4,1.6-3.8,5.7-3.8
				c0.4,0,0.8,0,1.2,0c0,2.3-0.1,5.1,0.1,7C166.2,31.2,165.2,31.3,164.2,31.3z M88.6,31c-4.9,0-7.5-2.5-7.5-6.5v-0.2
				c0.9,0,2.6,0.1,3.6,0.1c8.7,0,13.1-2.7,13.1-8.6c0-5.1-3.7-8.4-11.6-8.4c-9.7,0-13.5,4.3-14.4,12c-1.4-0.1-3-0.1-5.1-0.1
				c0-0.4,0-0.8,0-1.3c0-7.8-3.2-10.7-11.9-10.7c-4.2,0-7.9,0.6-10.2,1.6l0.3,6.2c2-1.1,4.9-2.1,7.7-2.1c4,0,5.2,1.6,5.2,5.5v0.6
				c-0.3,0-1,0-1.3,0c-9.8,0-14.4,3-14.4,8.5c0,5.7,2.8,9,10.9,9c4.3,0,8.4-0.6,13.9-0.6c-0.4-2.3-0.4-5.6-0.4-7.8
				c0-1.2,0.1-2.6,0.1-4.2c2.3,0,4,0.1,5.1,0.1c0.8,9.2,5.6,12.5,15.4,12.5c3.6,0,7.3-0.6,9.3-1.5l-0.3-6.2
				C94.2,30.1,91.5,31,88.6,31z M55.1,31.3c-3,0-4.3-1-4.3-3.5c0-2.4,1.6-3.8,5.7-3.8c0.4,0,0.8,0,1.2,0c0,2.3-0.1,5.1,0.1,7
				C57.1,31.2,56,31.3,55.1,31.3z M81,19.4c0-3.9,1.2-6.8,4.8-6.8c2,0,3.4,1.1,3.4,3c0,2.7-1.8,4-5.6,4c-0.9,0-1.9,0-2.6-0.1V19.4
				L81,19.4z M147.6,23.1c0-2.4,0-5.5,0-5.5c0-7.1-3.1-10.2-11.9-10.2c-4.9,0-8.4,0.9-13.9,0.9c0.3,5,0.3,11.1,0.3,14.9
				c0,3.9-0.1,10.8-0.3,13h9.4c-0.2-2.2-0.4-8.7-0.4-13c0-2.5,0-5.5,0.1-9.5c0.9-0.3,2.1-0.6,3.4-0.6c3.3,0,4.4,1.5,4.4,5.8
				c0,0,0,2.7,0,4.2c0,3.9-0.1,10.8-0.3,13h9.4C147.8,33.9,147.6,27.5,147.6,23.1L147.6,23.1z M118,29.9l0.4,6.2
				c-0.7,0.2-3,0.6-6,0.6c-6.2,0-9.5-2.6-9.5-9c0-5,0.1-10.5,0.1-13.5h-3.2c0.1-1.4,0-3.3,0-4.7c4.8-0.8,6.3-3.5,7.1-8.8h5.3
				c-0.2,2.2-0.3,5.3-0.4,7.5h5.6v6h-5.7v10.9c0,4.2,0.9,5.4,3.7,5.4C116.4,30.5,117.5,30.3,118,29.9L118,29.9z M11,4.8
				c1.2,0,2.3,0.4,3.2,1.3l5.2,5.2l5.2-5.2c0.9-0.9,2-1.3,3.2-1.3c1.1,0,2.3,0.4,3.2,1.3l6.4,6.4c1.8,1.8,1.8,4.6,0,6.4l-18,17.9
				l-18-18c-1.8-1.8-1.8-4.6,0-6.4L7.8,6C8.7,5.2,9.8,4.8,11,4.8 M177.4,7.4h4.9v1h-1.9v5h-1.2v-5h-1.9L177.4,7.4L177.4,7.4z
				 M183.4,7.4h1.6l0.8,2.6c0.2,0.8,0.6,2.3,0.6,2.3l0,0c0,0,0.4-1.5,0.6-2.3l0.8-2.6h1.6v6h-1.1v-2.2c0-1.1,0.1-2.7,0.1-2.7l0,0
				c0,0-0.4,1.4-0.7,2.6l-0.7,2.3h-1.1l-0.7-2.3c-0.4-1.2-0.7-2.6-0.7-2.6l0,0c0,0,0.1,1.7,0.1,2.7v2.2h-1.1v-6H183.4z"/>
		</g>
	</g>
</g>
</svg>
