<?xml version="1.0" encoding="utf-8"?>
<!-- Generator: Adobe Illustrator 24.0.3, SVG Export Plug-In . SVG Version: 6.00 Build 0)  -->
<svg version="1.1" id="Layer_1" xmlns="http://www.w3.org/2000/svg" xmlns:xlink="http://www.w3.org/1999/xlink" x="0px" y="0px"
	 viewBox="0 0 226 76" style="enable-background:new 0 0 226 76;" xml:space="preserve">
<style type="text/css">
	.st0{fill:#3B2760;}
	.st1{fill:#FFFFFF;}
</style>
<title>cigna-color</title>
<desc>Created with Sketch.</desc>
<g id="template-carrier-2.0-_x28_complete_x29_">
	<g id="template-carrier-2.0-desktop" transform="translate(-67.000000, -507.000000)">
		<g id="cigna-color" transform="translate(67.000000, 507.000000)">
			<path id="Path" class="st0" d="M225.2,54.2c0,1.7-1.4,3.1-3,3c-1.6,0-3-1.5-2.9-3.2c0-1.7,1.4-3,3-3
				C223.8,51,225.2,52.4,225.2,54.2L225.2,54.2L225.2,54.2z"/>
			<path id="Path_1_" class="st1" d="M219.7,54.3c0.1,0.9,0.6,1.7,1.4,2.1s1.8,0.3,2.5-0.2c0.7-0.5,1.2-1.4,1.1-2.3
				c-0.1-1.3-1.2-2.4-2.5-2.4c-0.7,0-1.3,0.3-1.8,0.8C219.9,52.9,219.6,53.6,219.7,54.3L219.7,54.3z"/>
			<path id="Path_2_" class="st0" d="M222.1,52.3c0.8,0,1.3,0.2,1.3,1c0,0.5-0.2,0.9-0.7,1.1l0.2,0.4c0.2,0.3,0.4,0.6,0.6,0.9
				c0,0.1-0.1,0.1-0.2,0.1h-0.2c-0.2,0-0.3,0-0.3-0.1c-0.2-0.2-0.3-0.5-0.4-0.7l-0.3-0.5h-0.4v1.2c0,0-0.1,0.1-0.2,0.1h-0.3
				c-0.1,0-0.2,0-0.2-0.1v-3.4H222.1L222.1,52.3z"/>
			<path id="Path_3_" class="st1" d="M221.7,53.9h0.5c0.5,0,0.6-0.2,0.6-0.5c0-0.4-0.4-0.5-0.7-0.5h-0.4V53.9L221.7,53.9z"/>
			<path id="Shape" class="st0" d="M57,32.5c0,0.6-0.6,1.2-1.4,2.3c-2.7,3.3-9,9.4-9,24.2c0,7.7,1.2,10.9,1.2,14.5
				c0,1.7-0.3,2.6-1.2,2.6c-2,0-5.3-8.2-5.3-17.8c0-20.4,12.9-26,14.9-26C56.8,32,57,32.2,57,32.5z M24.5,32c2,0,14.9,5.6,14.9,26
				c0,9.7-3.3,17.8-5.2,17.8c-0.9,0-1.2-0.9-1.2-2.6c0-3.6,1.2-6.8,1.2-14.5c0-14.8-6.1-20.9-8.8-24.2c-0.8-1.1-1.4-1.7-1.4-2.3
				C23.9,32.2,24.1,32,24.5,32z"/>
			<circle id="Oval" class="st0" cx="40.5" cy="36.5" r="4.5"/>
			<path id="Shape_1_" class="st0" d="M40,13.8c-2.4-0.9-3.9-3.3-3.7-5.9c-0.1-3,1.3-6.1,3.7-7.9c2.4,1.8,3.9,4.7,3.7,7.9
				C43.9,10.5,42.4,12.9,40,13.8z M79.6,66.6c-6.6-4.1-16.6-8.3-31-9.9c-0.1,0.8-0.1,1.5-0.1,2.3c0,0.5,0,0.9,0.1,1.2
				c10.6,0.6,21,2.9,31,6.5c0.1,0,0.3,0.2,0.3,0.2s0.1,0,0.1-0.2l0,0C80,66.8,79.9,66.8,79.6,66.6z M47.5,11.5
				c-1.5-1.2-1.9-3.2-1.3-4.9c0.6-2.1,2.2-3.8,4.2-4.6c1.3,1.8,1.6,4.1,0.9,6.2C50.9,10,49.3,11.4,47.5,11.5z M58.2,20.6
				c-0.6-1.7,0-3.6,1.5-4.7c1.5-1.4,3.7-2,5.8-1.5c0.1,2.1-0.7,4.2-2.4,5.5C61.6,21.1,59.7,21.4,58.2,20.6L58.2,20.6z M58.5,34.3
				c0.4-1.7,1.9-2.9,3.7-3c2.1-0.3,4,0.5,5.5,2c-1,1.8-3,3-4.9,3C61,36.6,59.4,35.7,58.5,34.3L58.5,34.3z M54.6,39.2
				c0.9-1.4,2.4-2,3.9-1.5c1.8,0.3,3.3,1.4,4.2,3c-1.3,1.2-3.3,1.8-5.1,1.4C56.1,41.9,54.9,40.7,54.6,39.2L54.6,39.2z M43,26.3
				c-1.8-1.4-2.4-3.8-1.6-5.9c0.7-2.6,2.5-4.7,5.1-5.5c1.5,2.1,1.9,5,1,7.4C47,24.4,45.2,26,43,26.3L43,26.3z M48.1,29.3
				c-0.6-2,0-4.1,1.6-5.3c1.8-1.7,4.2-2.3,6.4-1.7c0.1,2.4-0.9,4.7-2.7,6.2C51.9,29.9,49.9,30.2,48.1,29.3L48.1,29.3z M51.5,18.2
				c-1.3-1.8-1.3-4.4,0-6.2c1.3-2.3,3.9-3.8,6.4-3.9c0.9,2.6,0.6,5.3-0.9,7.6C55.8,17.6,53.7,18.7,51.5,18.2L51.5,18.2z M58.4,27.8
				c-0.1-2.1,1.2-4.1,3.1-4.9c2.2-1.1,4.9-1.1,7,0.2c-0.6,2.4-2.2,4.6-4.5,5.5C62.1,29.6,59.9,29.3,58.4,27.8L58.4,27.8z M0,66.9
				C0,66.9,0.1,66.9,0,66.9C0.1,66.9,0.1,66.9,0,66.9c0.3,0.2,0.3,0,0.4,0c10-3.6,20.4-5.9,31-6.5c0-0.5,0.1-0.9,0.1-1.2
				c0-0.8,0-1.5-0.1-2.3C17,58.3,7,62.5,0.3,66.6C0.1,66.8,0,66.8,0,66.9z M28.7,8.2c-0.7-2.1-0.3-4.4,0.9-6.2
				c2.1,0.8,3.6,2.4,4.2,4.6c0.6,1.8,0.1,3.8-1.3,4.9C30.6,11.4,29.1,10,28.7,8.2z M17,19.9c-1.6-1.4-2.5-3.5-2.4-5.6
				c2.1-0.5,4.2,0.2,5.8,1.5c1.5,1.1,2.1,3,1.5,4.7C20.3,21.4,18.2,21.1,17,19.9L17,19.9z M17.2,36.3c-2.1-0.2-3.9-1.4-4.9-3.2
				c1.3-1.5,3.4-2.3,5.5-2c1.8,0.2,3.3,1.4,3.7,3C20.6,35.8,18.8,36.6,17.2,36.3L17.2,36.3z M22.2,42c-1.8,0.5-3.7-0.2-5.1-1.4
				c0.7-1.7,2.4-2.9,4.2-3.2c1.5-0.5,3.1,0.2,3.9,1.5C24.9,40.7,23.7,41.9,22.2,42L22.2,42z M32.4,22.3c-0.9-2.6-0.4-5.3,1-7.4
				c2.5,0.9,4.3,3,5.1,5.5c0.7,2.1,0.1,4.6-1.6,5.9C34.6,26.1,32.8,24.4,32.4,22.3L32.4,22.3z M26.4,28.5c-1.8-1.5-2.8-3.8-2.7-6.2
				c2.2-0.6,4.8,0.2,6.4,1.7c1.6,1.2,2.2,3.3,1.6,5.3C30,30.2,27.9,29.9,26.4,28.5L26.4,28.5z M22.8,15.6c-1.5-2.3-1.8-5-0.9-7.6
				c2.7,0.2,5.1,1.7,6.4,3.9c1.3,1.8,1.3,4.4,0,6.2C26.3,18.7,24,17.6,22.8,15.6L22.8,15.6z M16,28.7c-2.2-1.1-3.9-3-4.5-5.5
				c2.2-1.2,4.8-1.4,7-0.2c1.9,0.8,3.3,2.7,3.1,4.9C20.1,29.3,17.8,29.6,16,28.7L16,28.7z"/>
			<path id="Shape_2_" class="st0" d="M162.4,56.5V38.1c0-2.5-0.3-7.3-0.3-8.3h5.7l0.3,3.7h0.2c1.7-2.8,4.7-4.4,8-4.3
				c6.2,0,9.5,4.4,9.5,9.9v17.3h-6.5v-16c0-3.4-2-5.9-5.3-5.9c-3.3,0-5.3,2.7-5.3,5.9v16H162.4L162.4,56.5z M124.3,29.8h-6.5v26.6
				h6.5V29.8z M217,56.5c-0.5-3-0.8-5.9-0.8-8.7V30.4c-2.9-0.7-5.9-1.2-8.9-1.2c-11,0-15.7,7.3-15.7,15.1c0,7.3,3.6,12.9,10.7,12.9
				c3.6,0.1,6.8-1.9,8.3-5h0.2c0,0.9,0.3,3.7,0.3,4.4L217,56.5z M209.8,43.3c0,6.1-2.4,8.6-6,8.6c-3.6,0-5.6-3-5.6-8.1
				s3.2-9.6,8.9-9.6c0.9,0,1.8,0.1,2.7,0.3V43.3z M111.3,49.9c-2.3,0.9-4.8,1.3-7.4,1.3c-7.4,0-13-5.2-13-13.2s5.4-13.2,13-13.2
				c2.6,0,5,0.4,7.4,1.3v-5.8c-2.6-0.9-5.3-1.3-8-1.2C91.7,19.3,84,27.1,84,38.1c0,10.4,7.2,18.8,19.3,18.8c2.7,0,5.4-0.3,8-1.2
				V49.9z M148.8,53.3v1.9c0,5.5-3.5,7.5-7.7,7.5c-2.6,0-5.1-0.6-7.5-1.5v5.5c2.7,0.7,5.4,1.2,8.3,1.2c7.9,0,13.1-3.3,13.1-14.1
				V30.4c-2.9-0.7-5.9-1.2-8.9-1.2c-11,0-15.7,7.3-15.7,15.1c0,7.3,3.6,12.9,10.7,12.9C144.1,57.3,147,55.9,148.8,53.3L148.8,53.3z
				 M148.5,43.3c0,6.1-2.4,8.6-6,8.6s-5.6-3-5.6-8.1s3-9.6,8.8-9.6c0.9,0,1.8,0.1,2.7,0.3L148.5,43.3z M117.1,22.8
				c0,2.2,1.7,4,3.9,4s4.1-1.6,4.1-3.8s-1.7-4-3.9-4H121C118.9,19,117.1,20.8,117.1,22.8z"/>
		</g>
	</g>
</g>
</svg>
