<?xml version="1.0" encoding="utf-8"?>
<!-- Generator: Adobe Illustrator 24.0.3, SVG Export Plug-In . SVG Version: 6.00 Build 0)  -->
<svg version="1.1" id="Layer_1" xmlns="http://www.w3.org/2000/svg" xmlns:xlink="http://www.w3.org/1999/xlink" x="0px" y="0px"
	 viewBox="0 0 173 35" style="enable-background:new 0 0 173 35;" xml:space="preserve">
<style type="text/css">
	.st0{fill:#3B2760;}
</style>
<title>logo / humana</title>
<desc>Created with Sketch.</desc>
<g id="template-carrier-2.0-_x28_complete_x29_">
	<g id="template-carrier-2.0-desktop" transform="translate(-85.000000, -580.000000)">
		<g id="logo-_x2F_-humana" transform="translate(85.000000, 580.000000)">
			<g id="Group-14">
				<g id="Group-10">
					<g id="humana">
						<path id="Shape" class="st0" d="M173,31.8c0,1.7-1.4,3.1-3,3c-1.7,0-3-1.5-2.9-3.2c0-1.7,1.4-3.1,3-3
							C171.7,28.6,173,30,173,31.8L173,31.8L173,31.8z M167.6,31.9c0.1,0.9,0.6,1.7,1.4,2.1c0.8,0.4,1.7,0.3,2.5-0.2
							c0.7-0.5,1.1-1.4,1.1-2.3c-0.1-1.3-1.2-2.4-2.5-2.4c-0.7,0-1.3,0.3-1.8,0.8C167.8,30.5,167.5,31.2,167.6,31.9L167.6,31.9z
							 M170,30c0.8,0,1.3,0.2,1.3,1c0,0.5-0.2,0.9-0.7,1.1l0.2,0.4c0.2,0.3,0.4,0.6,0.6,0.9c0,0.1-0.1,0.1-0.2,0.1H171
							c-0.2,0-0.3,0-0.3-0.1c-0.2-0.2-0.3-0.5-0.4-0.7l-0.3-0.5h-0.4v1.2c0,0-0.1,0.1-0.2,0.1h-0.3c-0.1,0-0.2,0-0.2-0.1V30H170
							L170,30z M169.5,31.6h0.5c0.5,0,0.6-0.2,0.6-0.5c0-0.4-0.4-0.5-0.7-0.5h-0.4V31.6L169.5,31.6z M45.6,8.3c-0.5,0-0.9,0.4-0.9,1
							v20c-1.4,0.3-2.9,0.5-4.4,0.5c-3.3,0-4.5-1.3-4.5-5V9.3c0-0.3-0.1-0.5-0.2-0.7s-0.4-0.3-0.6-0.3h-5v16.5
							c0,7.7,3.9,10.2,10.3,10.2c3.6-0.1,7.1-0.6,10.5-1.6V8.3H45.6L45.6,8.3z M122.7,34.7c0.5,0,0.9-0.4,0.9-1V13.6
							c1.4-0.3,2.9-0.5,4.4-0.5c3.3,0,4.5,1.3,4.5,5v15.6c0,0.3,0.1,0.5,0.2,0.7c0.2,0.2,0.4,0.3,0.6,0.3h5V18.1
							c0-7.7-3.9-10.2-10.3-10.2c-3.6,0.1-7.1,0.6-10.5,1.6v25.2L122.7,34.7L122.7,34.7z M102.6,7.9c-6.5,0-10.7,3.7-10.7,11.6v4
							c0,8.7,4.5,11.6,9.3,11.6c2.4,0,4.8-1.7,5.6-2.8v1.6c0,0.5,0.4,0.9,0.9,0.9h5V9.4C109.4,8.4,106,7.9,102.6,7.9L102.6,7.9z
							 M106.8,28.3c-1.1,1-1.9,1.6-4.3,1.7c-3.3,0-4.7-2.1-4.7-6.6v-3.7c0-5.2,1.8-6.6,4.7-6.6c1.4,0,2.9,0.1,4.3,0.3V28.3
							L106.8,28.3z M153.3,7.9c-6.5,0-10.7,3.7-10.7,11.6v4c0,8.7,4.5,11.6,9.3,11.6c2.4,0,4.8-1.7,5.6-2.8v1.6
							c0,0.5,0.4,0.9,0.9,0.9h5V9.4C160.1,8.4,156.7,7.9,153.3,7.9L153.3,7.9z M157.5,28.3c-1.1,1-1.9,1.6-4.3,1.7
							c-3.3,0-4.7-2.1-4.7-6.6v-3.7c0-5.2,1.8-6.6,4.7-6.6c1.4,0,2.9,0.1,4.3,0.3V28.3L157.5,28.3z M0,34.7h5.3
							c0.5,0,0.9-0.4,0.9-0.9V19.2H16c1.5,0,2.8,1.2,2.8,2.8v11.8c0,0.5,0.4,0.9,0.9,0.9h5.3V0h-5.3c-0.5,0-0.8,0.4-0.9,0.9v13H8.7
							c-1.3,0-2.4-1.1-2.4-2.5V0.9C6.2,0.4,5.8,0,5.3,0H0V34.7z M78.7,7.8c-2.4,0-4.7,0.7-6.7,2c-1.8-1.4-4.3-2-7.4-2
							c-3.1,0-6.2,0.6-9.1,1.7v25.1h5c0.2,0,0.5-0.1,0.6-0.3c0.2-0.2,0.3-0.4,0.3-0.7l0,0V13.5c0.9-0.3,1.9-0.4,2.9-0.5
							c3.5,0,4.3,1.5,4.3,5v15.6c0,0.5,0.4,1,0.9,1h4.1c0.2,0,0.5-0.1,0.7-0.3s0.3-0.4,0.2-0.7V14.3c1-0.8,2.2-1.3,3.5-1.2
							c2.7,0,3.8,1.3,3.8,4.7v16c0,0.5,0.4,1,0.9,1h5V16.9C87.8,10.2,83.8,7.8,78.7,7.8L78.7,7.8z"/>
					</g>
				</g>
			</g>
		</g>
	</g>
</g>
</svg>
