<?xml version="1.0" encoding="UTF-8"?>
<svg width="876px" height="157px" viewBox="0 0 876 157" version="1.1" xmlns="http://www.w3.org/2000/svg" xmlns:xlink="http://www.w3.org/1999/xlink">
    <title>MoO_Horiz_Black</title>
    <g id="Page-1" stroke="none" stroke-width="1" fill="none" fill-rule="evenodd">
        <g id="MoO_Horiz_Black" fill="#3B2760" fill-rule="nonzero">
            <g id="Group">
                <path d="M123.296404,16.2233333 C120.057079,13.6276 116.817753,11.6808 113.578427,10.3829333 C105.804045,11.0318667 77.2979775,14.2765333 76.0022472,33.7445333 C76.0022472,33.7445333 76.0022472,34.3934667 76.6501124,33.7445333 C88.9595506,14.2765333 114.874157,14.9254667 123.296404,16.2233333 Z" id="Path"></path>
                <path d="M66.2842697,55.1593333 C64.9885393,55.1593333 64.3406742,55.8082667 63.692809,56.4572 C63.0449438,58.404 63.692809,59.7018667 62.3970787,60.9997333 C61.7492135,61.6486667 61.7492135,62.2976 62.3970787,62.2976 C67.58,62.2976 70.8193258,62.2976 76.6501124,58.404 C77.2979775,57.7550667 77.2979775,57.1061333 76.6501124,57.1061333 C73.4107865,56.4572 68.8757303,55.1593333 66.2842697,55.1593333 Z" id="Path"></path>
                <path d="M99.3253933,43.4785333 L99.3253933,43.4785333 C100.621124,43.4785333 101.916854,44.1274667 101.268989,42.8296 L101.268989,42.8296 C98.0296629,38.2870667 92.1988764,43.4785333 90.2552809,45.4253333 L90.2552809,45.4253333 C92.1988764,46.0742667 93.4946067,47.3721333 94.7903371,48.67 C95.4382022,45.4253333 97.3817978,43.4785333 99.3253933,43.4785333 Z" id="Path"></path>
                <path d="M140.788764,101.2336 C140.788764,81.1166667 130.422921,63.5954667 114.874157,53.8614667 L114.874157,53.8614667 C129.127191,59.0529333 142.73236,67.4890667 154.393933,76.5741333 C154.393933,71.3826667 153.746067,66.8401333 152.450337,62.2976 C142.084494,50.6168 127.183596,42.1806667 110.339101,41.5317333 C109.691236,40.2338667 108.395506,36.9892 104.508315,35.0424 C108.395506,34.3934667 112.930562,33.7445333 117.465618,33.7445333 C123.296404,33.7445333 129.127191,35.0424 134.310112,36.3402667 C138.197303,37.6381333 142.73236,38.936 143.380225,39.5849333 C140.788764,35.0424 137.549438,30.4998667 133.662247,26.6062667 C87.0159551,15.5744 82.4808989,42.8296 82.4808989,42.8296 C82.4808989,42.8296 82.4808989,43.4785333 83.128764,43.4785333 L83.7766292,43.4785333 L84.4244944,43.4785333 C85.0723596,42.1806667 86.3680899,41.5317333 87.6638202,40.2338667 C90.2552809,38.2870667 94.1424719,35.6913333 100.621124,37.6381333 C104.508315,39.5849333 107.099775,42.8296 107.099775,47.3721333 C107.099775,51.9146667 104.508315,55.1593333 100.621124,57.1061333 L100.621124,57.1061333 C101.916854,57.7550667 101.916854,58.404 101.916854,58.404 C102.564719,60.9997333 103.212584,63.5954667 103.212584,66.1912 C103.212584,72.0316 100.621124,77.872 97.3817978,81.7656 C97.3817978,81.7656 98.0296629,80.4677333 98.0296629,79.8188 C98.6775281,77.872 99.3253933,75.9252 99.3253933,73.3294667 C99.3253933,68.7869333 97.3817978,64.2444 94.1424719,61.6486667 C96.0860674,68.7869333 94.1424719,91.4996 76.0022472,91.4996 C76.0022472,91.4996 69.5235955,91.4996 67.58,90.2017333 C67.58,90.2017333 68.2278652,99.9357333 61.1013483,101.2336 C59.1577528,101.882533 57.2141573,101.882533 55.2705618,101.882533 C50.0876404,101.882533 44.9047191,100.584667 39.0739326,97.34 C34.5388764,94.7442667 33.2431461,91.4996 33.2431461,90.2017333 C33.2431461,83.0634667 35.1867416,82.4145333 39.7217978,81.1166667 C41.6653933,80.4677333 44.2568539,81.1166667 46.2004494,81.7656 C46.8483146,81.7656 46.8483146,81.7656 46.8483146,81.1166667 C46.2004494,79.8188 45.5525843,78.5209333 44.9047191,77.872 C44.2568539,77.2230667 42.9611236,77.2230667 41.6653933,77.2230667 C39.7217978,77.2230667 38.4260674,77.872 37.1303371,77.872 C34.5388764,77.872 33.8910112,75.9252 31.2995506,75.9252 C28.7080899,75.9252 28.7080899,77.2230667 27.4123596,77.2230667 C26.7644944,77.2230667 26.1166292,75.9252 26.1166292,75.2762667 C26.7644944,73.3294667 28.7080899,69.4358667 30.6516854,68.7869333 C33.8910112,66.1912 40.3696629,63.5954667 43.6089888,60.9997333 C44.9047191,59.7018667 46.8483146,46.7232 56.5662921,44.1274667 C57.2141573,44.1274667 57.8620225,44.1274667 58.5098876,43.4785333 L58.5098876,43.4785333 C50.7355056,22.0637333 69.5235955,12.9786667 69.5235955,12.9786667 C66.2842697,15.5744 59.805618,23.3616 63.692809,33.7445333 L64.3406742,33.7445333 C68.2278652,9.734 97.3817978,6.48933333 105.804045,5.8404 C97.3817978,2.59573333 87.6638202,0.648933333 77.9458427,0.648933333 C35.1867416,0.648933333 0.202022472,35.6913333 0.202022472,78.5209333 C0.202022472,114.212267 24.1730337,144.0632 56.5662921,153.148267 L55.2705618,146.658933 C54.6226966,144.0632 54.6226966,141.467467 54.6226966,138.871733 C54.6226966,121.999467 64.3406742,107.722933 78.5937079,101.2336 C75.354382,107.074 73.4107865,113.563333 73.4107865,120.7016 C73.4107865,123.946267 74.0586517,127.190933 75.354382,129.786667 C77.2979775,120.7016 81.8330337,112.9144 88.3116854,107.074 C92.1988764,103.1804 96.0860674,99.2868 101.268989,94.0953333 C105.15618,90.2017333 107.74764,85.0102667 109.691236,79.8188 C110.339101,78.5209333 110.986966,77.2230667 110.986966,75.2762667 C110.986966,74.6273333 111.634831,73.9784 111.634831,72.6805333 C111.634831,72.0316 112.282697,70.0848 112.282697,70.0848 C112.282697,70.0848 112.282697,72.0316 112.930562,72.6805333 C112.930562,73.3294667 112.930562,74.6273333 112.930562,75.2762667 C113.578427,83.0634667 112.282697,90.8506667 110.339101,97.9889333 C110.339101,98.6378667 109.691236,99.2868 109.691236,99.9357333 C106.45191,109.669733 100.621124,118.105867 94.1424719,126.542 C86.3680899,134.3292 82.4808989,142.765333 82.4808989,151.8504 C82.4808989,153.148267 82.4808989,155.095067 82.4808989,156.392933 C87.0159551,156.392933 91.5510112,155.095067 96.0860674,154.446133 C96.7339326,152.499333 98.0296629,147.9568 98.0296629,147.9568 C105.15618,127.839867 125.887865,113.563333 124.592135,85.6592 L124.592135,85.6592 C129.775056,96.0421333 126.53573,118.105867 122.648539,134.978133 L122.648539,134.978133 C122.000674,138.2228 121.352809,141.467467 120.704944,144.0632 C125.24,140.818533 129.775056,136.924933 133.662247,133.031333 C139.493034,123.297333 140.788764,112.265467 140.788764,101.2336 Z M28.7080899,96.0421333 C28.0602247,96.6910667 28.0602247,97.9889333 27.4123596,97.9889333 C26.7644944,97.9889333 26.7644944,96.0421333 26.1166292,94.7442667 C26.1166292,94.0953333 25.468764,92.7974667 25.468764,92.1485333 C24.8208989,90.8506667 24.8208989,89.5528 24.8208989,88.2549333 C24.8208989,86.3081333 24.8208989,84.3613333 26.1166292,82.4145333 L27.4123596,81.1166667 C30.0038202,81.1166667 30.6516854,86.3081333 30.6516854,89.5528 C30.0038202,90.8506667 29.3559551,94.7442667 28.7080899,96.0421333 Z M57.2141573,107.074 C46.2004494,115.510133 45.5525843,120.052667 45.5525843,120.052667 L45.5525843,120.052667 L45.5525843,120.052667 C41.6653933,117.456933 37.1303371,110.9676 35.1867416,108.371867 C34.5388764,109.0208 34.5388764,111.616533 34.5388764,112.265467 C34.5388764,112.265467 34.5388764,112.9144 33.8910112,112.265467 C33.2431461,111.616533 33.2431461,110.9676 32.5952809,110.318667 C31.9474157,109.0208 30.6516854,107.074 30.6516854,105.1272 C30.6516854,105.1272 30.0038202,101.882533 30.0038202,100.584667 C30.0038202,97.9889333 31.2995506,96.0421333 31.2995506,95.3932 C32.5952809,98.6378667 37.7782022,102.531467 41.0175281,103.829333 C45.5525843,105.776133 52.031236,107.722933 57.2141573,107.074 C57.8620225,107.074 57.8620225,107.074 57.2141573,107.074 Z" id="Shape"></path>
            </g>
            <g id="Group" transform="translate(180.000000, 37.000000)">
                <polygon id="Path" points="289.274361 55.332 289.274361 28.8342857 272.410833 28.8342857 272.410833 55.332 272.410833 83.1222857 306.786486 83.1222857 306.786486 76.6594286 289.274361 76.6594286"></polygon>
                <polygon id="Path" points="127.125056 35.2971429 138.799806 35.2971429 138.799806 55.332 138.799806 83.1222857 155.663333 83.1222857 155.663333 55.332 155.663333 35.2971429 167.986681 35.2971429 167.986681 28.8342857 127.125056 28.8342857"></polygon>
                <path d="M105.721347,55.332 L105.721347,78.5982857 C101.181167,79.2445714 96.6409861,77.952 96.6409861,73.428 L96.6409861,55.332 L96.6409861,28.8342857 L81.0746528,28.8342857 L81.0746528,55.9782857 L81.0746528,66.9651429 L81.0746528,70.8428571 C81.0746528,77.3057143 84.3176389,79.8908571 87.560625,81.8297143 C89.5064167,82.476 91.4522083,83.1222857 93.398,83.1222857 L121.936278,83.1222857 L121.936278,81.8297143 L121.936278,55.9782857 L121.936278,28.8342857 L105.721347,28.8342857 L105.721347,55.332 L105.721347,55.332 Z" id="Path"></path>
                <path d="M255.547306,28.8342857 L225.711833,28.8342857 L225.711833,34.0045714 L243.872556,34.0045714 C245.16975,34.0045714 246.466944,35.2971429 247.115542,35.9434286 C248.412736,37.8822857 247.764139,41.1137143 247.764139,41.1137143 L247.764139,47.5765714 L231.549208,47.5765714 C227.009028,47.5765714 223.766042,51.4542857 223.766042,57.2708571 L223.766042,58.5634286 L223.766042,66.9651429 L223.766042,71.4891429 C223.766042,77.3057143 225.711833,80.5371429 228.306222,81.8297143 C229.603417,83.1222857 231.549208,83.1222857 233.495,83.1222857 L264.627667,83.1222857 L264.627667,81.8297143 L264.627667,58.5634286 L264.627667,38.5285714 L264.627667,35.9434286 C263.979069,32.0657143 260.087486,28.8342857 255.547306,28.8342857 Z M247.764139,78.5982857 C243.223958,79.2445714 239.980972,78.5982857 239.980972,73.428 C239.980972,73.428 239.980972,65.6725714 239.980972,58.5634286 C239.980972,54.0394286 243.872556,52.7468571 247.764139,52.7468571 L247.764139,57.9171429 L247.764139,78.5982857 Z" id="Shape"></path>
                <path d="M197.822153,55.332 L197.822153,78.5982857 C193.281972,79.2445714 188.741792,77.952 188.741792,73.428 L188.741792,55.332 L188.741792,28.8342857 L173.175458,28.8342857 L173.175458,55.9782857 L173.175458,66.9651429 L173.175458,70.8428571 C173.175458,77.3057143 176.418444,79.8908571 179.661431,81.8297143 C181.607222,82.476 183.553014,83.1222857 185.498806,83.1222857 L214.037083,83.1222857 L214.037083,81.8297143 L214.037083,55.9782857 L214.037083,28.8342857 L197.822153,28.8342857 L197.822153,55.332 L197.822153,55.332 Z" id="Path"></path>
                <path d="M520.174972,28.8342857 L464.395611,28.8342857 L464.395611,39.1748571 L464.395611,55.332 L464.395611,83.1222857 L481.259139,83.1222857 L481.259139,55.332 L481.259139,39.1748571 L481.259139,34.0045714 C485.799319,34.0045714 489.042306,35.2971429 489.042306,39.1748571 L489.042306,55.332 L489.042306,83.1222857 L506.554431,83.1222857 L506.554431,81.8297143 L506.554431,55.9782857 L506.554431,39.8211429 L506.554431,34.6508571 C511.094611,34.6508571 514.337597,35.9434286 514.337597,39.8211429 L514.337597,55.9782857 L514.337597,83.7685714 L531.849722,83.7685714 L531.849722,55.9782857 L531.849722,39.1748571 C531.849722,34.6508571 526.012347,28.8342857 520.174972,28.8342857 Z" id="Path"></path>
                <path d="M454.666653,28.8342857 C454.666653,28.188 454.018056,26.8954286 454.018056,26.2491429 L454.018056,26.2491429 C453.369458,24.3102857 452.720861,23.0177143 452.072264,21.0788571 C446.234889,6.86057143 433.911542,0.397714286 417.696611,0.397714286 C399.535889,-0.248571429 387.861139,8.79942857 382.672361,21.0788571 C382.023764,23.0177143 381.375167,24.3102857 380.726569,26.2491429 L380.726569,26.2491429 L380.726569,26.8954286 C380.077972,30.1268571 379.429375,33.3582857 379.429375,36.5897143 C378.780778,41.76 378.780778,46.9302857 378.780778,52.1005714 C378.780778,53.3931429 379.429375,54.6857143 379.429375,56.6245714 L379.429375,56.6245714 C380.077972,59.856 380.726569,63.0874286 382.023764,65.6725714 C382.023764,66.3188571 382.672361,66.9651429 382.672361,67.6114286 C387.212542,75.3668571 392.401319,79.8908571 398.238694,82.476 C404.076069,85.0611429 410.562042,86.3537143 417.696611,85.7074286 C424.182583,85.7074286 429.371361,84.4148571 434.560139,82.476 C440.397514,79.8908571 445.586292,76.6594286 449.477875,72.1354286 C450.775069,70.8428571 451.423667,68.904 452.072264,67.6114286 C453.369458,64.38 454.666653,60.5022857 455.31525,56.6245714 L455.31525,56.6245714 C455.31525,55.332 455.963847,54.0394286 455.963847,52.1005714 C456.612444,46.9302857 456.612444,41.76 455.963847,36.5897143 C455.31525,33.3582857 455.31525,30.7731429 454.666653,28.8342857 Z M435.208736,55.332 C435.208736,59.2097143 435.208736,63.0874286 433.911542,66.3188571 C431.96575,74.0742857 427.425569,80.5371429 417.696611,80.5371429 C406.670458,80.5371429 402.130278,75.3668571 400.184486,66.3188571 C399.535889,63.0874286 399.535889,59.2097143 398.887292,55.332 L398.887292,55.332 C398.887292,54.0394286 398.887292,52.7468571 398.887292,50.808 L398.887292,41.76 L398.887292,35.2971429 C398.887292,31.4194286 398.887292,28.188 398.887292,24.9565714 C398.887292,23.0177143 398.887292,21.7251429 399.535889,19.7862857 C400.833083,10.092 404.724667,4.27542857 417.696611,4.27542857 C429.371361,4.27542857 433.262944,10.7382857 434.560139,19.7862857 C434.560139,21.0788571 435.208736,23.0177143 435.208736,24.9565714 L435.208736,24.9565714 C435.208736,28.188 435.208736,31.4194286 435.208736,35.2971429 L435.208736,41.76 L435.208736,50.808 C435.208736,52.7468571 435.208736,54.0394286 435.208736,55.332 L435.208736,55.332 L435.208736,55.332 Z" id="Shape"></path>
                <polygon id="Path" points="45.4018056 25.6028571 37.6186389 55.332 37.6186389 57.9171429 36.9700417 55.332 28.5382778 25.6028571 22.0523056 2.33657143 0 2.33657143 0 25.6028571 0 55.332 0 83.1222857 7.78316667 83.1222857 7.78316667 55.332 7.78316667 25.6028571 7.78316667 19.14 9.72895833 25.6028571 17.512125 55.332 25.2952917 83.1222857 38.2672361 83.1222857 45.4018056 55.332 53.1849722 25.6028571 54.4821667 19.14 54.4821667 25.6028571 54.4821667 55.332 54.4821667 83.1222857 71.9942917 83.1222857 71.9942917 55.332 71.9942917 25.6028571 71.9942917 2.33657143 51.2391806 2.33657143"></polygon>
                <path d="M354.134083,25.6028571 L354.134083,25.6028571 C352.188292,28.188 350.891097,30.1268571 350.891097,30.1268571 L328.838792,30.1268571 C325.595806,29.4805714 323.650014,29.4805714 319.758431,30.7731429 C311.326667,33.3582857 309.380875,39.1748571 307.435083,43.0525714 C306.137889,46.284 306.137889,50.808 308.732278,53.3931429 C309.380875,54.0394286 310.029472,54.6857143 310.678069,55.332 L310.678069,55.332 C315.866847,58.5634286 324.947208,58.5634286 330.784583,55.332 L330.784583,55.332 C331.433181,55.332 331.433181,54.6857143 332.081778,54.6857143 C336.621958,51.4542857 340.513542,43.6988571 339.216347,35.9434286 C339.216347,35.2971429 339.216347,35.2971429 339.216347,34.6508571 L350.2425,34.6508571 C350.2425,34.6508571 349.593903,35.2971429 349.593903,35.9434286 C348.296708,39.1748571 345.702319,45.6377143 343.107931,51.4542857 C342.459333,52.7468571 341.810736,54.6857143 341.162139,55.9782857 L341.162139,55.9782857 C340.513542,57.2708571 339.864944,57.9171429 339.216347,59.2097143 C337.270556,62.4411429 334.027569,70.1965714 325.595806,72.7817143 C318.461236,75.3668571 310.029472,70.8428571 310.029472,70.8428571 L308.732278,74.0742857 C310.029472,74.7205714 310.678069,75.3668571 311.326667,75.3668571 C311.975264,75.3668571 312.623861,76.0131429 315.21825,76.6594286 C323.650014,78.5982857 335.973361,72.7817143 341.810736,66.9651429 C343.107931,65.6725714 345.702319,63.0874286 349.593903,55.9782857 L349.593903,55.9782857 C350.2425,54.6857143 350.891097,53.3931429 351.539694,51.4542857 C352.188292,50.1617143 352.836889,48.2228571 353.485486,45.6377143 C355.431278,41.1137143 357.377069,34.6508571 357.377069,34.6508571 L372.294806,34.6508571 L373.592,30.1268571 L359.971458,30.1268571 C360.620056,28.8342857 361.268653,26.8954286 361.91725,25.6028571 L361.91725,25.6028571 C363.214444,23.0177143 363.863042,21.0788571 364.511639,20.4325714 C365.808833,18.4937143 367.754625,15.2622857 373.592,15.9085714 L373.592,12.0308571 C367.754625,13.3234286 363.214444,15.9085714 359.971458,19.14 C357.377069,21.7251429 355.431278,23.664 354.134083,25.6028571 Z M327.541597,46.284 C326.893,48.2228571 326.244403,49.5154286 324.947208,50.808 C323.001417,53.3931429 321.055625,54.6857143 318.461236,54.0394286 C316.515444,53.3931429 315.21825,52.7468571 315.21825,50.808 C315.21825,48.8691429 315.866847,46.9302857 317.164042,44.3451429 C317.812639,42.4062857 321.704222,35.2971429 321.704222,35.2971429 C322.352819,34.0045714 323.650014,33.3582857 324.947208,33.3582857 C328.190194,32.712 330.135986,34.0045714 330.135986,35.2971429 C330.784583,39.1748571 328.838792,42.4062857 327.541597,46.284 Z" id="Shape"></path>
                <path d="M572.711347,28.8342857 L542.875875,28.8342857 L542.875875,34.0045714 L561.036597,34.0045714 C562.333792,34.0045714 563.630986,35.2971429 564.279583,35.9434286 C565.576778,37.8822857 564.928181,43.6988571 564.928181,43.6988571 L564.928181,47.5765714 L548.71325,47.5765714 C544.173069,47.5765714 540.930083,51.4542857 540.930083,57.2708571 L540.930083,58.5634286 L540.930083,66.9651429 L540.930083,71.4891429 C540.930083,77.3057143 542.875875,80.5371429 545.470264,81.8297143 C546.767458,83.1222857 548.71325,83.1222857 550.659042,83.1222857 L581.791708,83.1222857 L581.791708,81.8297143 L581.791708,58.5634286 L581.791708,38.5285714 L581.791708,35.9434286 C581.143111,32.0657143 577.900125,28.8342857 572.711347,28.8342857 Z M564.928181,78.5982857 C560.388,79.2445714 557.145014,78.5982857 557.145014,73.428 C557.145014,73.428 557.145014,65.6725714 557.145014,58.5634286 C557.145014,54.0394286 561.036597,52.7468571 564.928181,52.7468571 L564.928181,57.9171429 L564.928181,78.5982857 Z" id="Shape"></path>
                <path d="M674.541111,28.8342857 L644.705639,28.8342857 L644.705639,34.0045714 L662.866361,34.0045714 C664.163556,34.0045714 665.46075,35.2971429 666.109347,35.9434286 C667.406542,37.8822857 666.757944,43.6988571 666.757944,43.6988571 L666.757944,47.5765714 L650.543014,47.5765714 C646.002833,47.5765714 642.759847,51.4542857 642.759847,57.2708571 L642.759847,58.5634286 L642.759847,66.9651429 L642.759847,71.4891429 C642.759847,77.3057143 644.705639,80.5371429 647.300028,81.8297143 C648.597222,83.1222857 650.543014,83.1222857 652.488806,83.1222857 L683.621472,83.1222857 L683.621472,81.8297143 L683.621472,58.5634286 L683.621472,38.5285714 L683.621472,35.9434286 C682.972875,32.0657143 679.081292,28.8342857 674.541111,28.8342857 Z M666.757944,78.5982857 C662.217764,79.2445714 658.974778,78.5982857 658.974778,73.428 C658.974778,73.428 658.974778,65.6725714 658.974778,58.5634286 C658.974778,54.0394286 662.866361,52.7468571 666.757944,52.7468571 L666.757944,57.9171429 L666.757944,78.5982857 Z" id="Shape"></path>
                <polygon id="Path" points="616.167361 35.9434286 616.167361 45.6377143 616.167361 47.5765714 607.087 47.5765714 607.087 45.6377143 607.087 35.9434286 607.087 28.8342857 590.223472 28.8342857 590.223472 35.9434286 590.223472 45.6377143 590.223472 49.5154286 590.223472 66.9651429 590.223472 81.8297143 590.223472 83.1222857 607.087 83.1222857 607.087 81.8297143 607.087 66.9651429 607.087 54.0394286 616.167361 54.0394286 616.167361 66.9651429 616.167361 81.8297143 616.167361 83.1222857 633.679486 83.1222857 633.679486 81.8297143 633.679486 66.9651429 633.679486 49.5154286 633.679486 45.6377143 633.679486 35.9434286 633.679486 28.8342857 616.167361 28.8342857"></polygon>
                <g transform="translate(687.513056, 28.834286)" id="Shape">
                    <path d="M3.89158333,0 C1.94579167,0 0.648597222,1.29257143 0.648597222,3.23142857 C0.648597222,5.17028571 1.94579167,6.46285714 3.89158333,6.46285714 C5.837375,6.46285714 7.13456944,5.17028571 7.13456944,3.23142857 C7.78316667,1.29257143 5.837375,0 3.89158333,0 L3.89158333,0 Z M3.89158333,5.81657143 C2.59438889,5.81657143 1.29719444,4.524 1.29719444,3.23142857 C1.29719444,1.93885714 2.59438889,0.646285714 3.89158333,0.646285714 C5.18877778,0.646285714 6.48597222,1.93885714 6.48597222,3.23142857 C7.13456944,4.524 5.837375,5.81657143 3.89158333,5.81657143 L3.89158333,5.81657143 Z"></path>
                    <path d="M5.18877778,2.58514286 C5.18877778,2.58514286 4.54018056,2.58514286 5.18877778,2.58514286 C4.54018056,3.23142857 4.54018056,3.23142857 4.54018056,3.23142857 L3.89158333,3.23142857 L3.89158333,1.93885714 L4.54018056,1.93885714 C4.54018056,1.93885714 4.54018056,1.93885714 5.18877778,2.58514286 C4.54018056,1.93885714 5.18877778,1.93885714 5.18877778,2.58514286 L5.18877778,2.58514286 Z M5.837375,5.17028571 L5.18877778,4.524 C5.18877778,4.524 5.18877778,3.87771429 4.54018056,3.87771429 C4.54018056,3.87771429 4.54018056,3.87771429 4.54018056,3.23142857 C5.18877778,3.23142857 5.837375,2.58514286 5.837375,1.93885714 C5.837375,1.29257143 5.837375,1.29257143 5.18877778,1.29257143 C5.18877778,1.29257143 4.54018056,1.29257143 3.89158333,1.29257143 L2.59438889,1.29257143 L2.59438889,5.17028571 L3.24298611,5.17028571 L3.24298611,3.23142857 L3.89158333,3.23142857 C3.89158333,3.23142857 4.54018056,3.87771429 4.54018056,4.524 C4.54018056,4.524 4.54018056,5.17028571 5.18877778,5.17028571 L5.837375,5.17028571 L5.837375,5.17028571 Z"></path>
                </g>
            </g>
        </g>
    </g>
</svg>